<?xml version="1.0" standalone="no"?>
<!DOCTYPE svg PUBLIC "-//W3C//DTD SVG 20010904//EN"
 "http://www.w3.org/TR/2001/REC-SVG-20010904/DTD/svg10.dtd">
<svg version="1.0" xmlns="http://www.w3.org/2000/svg"
 width="500.000000pt" height="500.000000pt" viewBox="0 0 500.000000 500.000000"
 preserveAspectRatio="xMidYMid meet">
<metadata>
Created by potrace 1.14, written by Peter Selinger 2001-2017
</metadata>
<g transform="translate(0.000000,500.000000) scale(0.100000,-0.100000)"
fill="#000000" stroke="none">
<path d="M1227 4384 c-1 -1 -40 -5 -87 -9 -47 -4 -88 -9 -91 -11 -4 -2 -23 -6
-43 -8 -278 -36 -613 -221 -787 -436 -244 -301 -262 -679 -46 -992 l47 -68
-26 -72 c-31 -87 -72 -163 -130 -239 -57 -77 -61 -93 -30 -124 24 -24 31 -25
84 -20 129 15 267 55 401 117 l84 38 82 -35 c93 -40 115 -42 138 -17 39 44 21
85 -49 111 -30 12 -77 32 -104 46 -50 26 -98 32 -115 16 -33 -31 -172 -92
-273 -120 l-71 -19 34 61 c40 74 95 232 95 275 0 21 -15 51 -49 95 -100 133
-144 261 -144 422 0 198 73 362 230 518 284 281 764 410 1208 326 28 -5 64
-12 80 -15 54 -9 205 -63 288 -103 119 -57 249 -153 341 -254 71 -77 84 -88
110 -85 21 2 35 12 45 30 20 36 8 59 -90 162 -240 254 -607 401 -1019 410 -61
1 -112 1 -113 0z"/>
<path d="M2888 3675 c-2 -1 -50 -5 -108 -9 -58 -3 -116 -8 -130 -10 -14 -2
-49 -7 -79 -11 -63 -8 -58 -7 -176 -34 -431 -98 -789 -291 -1056 -567 -188
-195 -326 -447 -365 -669 -3 -16 -9 -47 -14 -68 -9 -42 -6 -329 4 -367 3 -14
9 -41 12 -60 9 -59 61 -204 102 -287 95 -193 207 -331 412 -508 134 -115 412
-268 620 -340 103 -36 302 -89 370 -99 19 -3 53 -8 75 -12 66 -10 86 -13 195
-21 120 -8 356 -8 439 2 31 4 63 7 71 7 8 0 35 4 60 8 25 5 65 11 90 15 148
21 401 100 583 182 l99 44 96 -50 c222 -114 434 -177 694 -206 49 -6 59 -4 77
14 12 12 21 30 21 41 0 10 -32 63 -70 116 -113 156 -195 318 -235 466 l-18 67
47 62 c129 171 227 399 253 586 10 74 10 281 0 353 -63 447 -404 867 -902
1109 -268 131 -553 209 -860 236 -72 7 -302 14 -307 10z m277 -130 c100 -7
135 -11 180 -19 17 -3 46 -8 65 -11 66 -11 205 -45 285 -71 570 -182 980 -551
1110 -1000 29 -101 32 -115 41 -236 20 -261 -86 -572 -269 -792 -35 -41 -41
-55 -40 -90 4 -99 103 -353 195 -497 19 -30 38 -60 42 -67 8 -13 1 -12 -72 2
-166 34 -413 130 -542 211 -20 12 -45 25 -56 27 -10 3 -57 -15 -104 -38 -313
-157 -691 -242 -1059 -238 -118 1 -258 10 -312 19 -13 2 -65 11 -114 19 -195
34 -401 100 -585 188 -69 33 -126 64 -128 69 -2 5 -8 9 -13 9 -13 0 -152 93
-214 144 -267 217 -443 498 -489 782 -60 369 66 728 358 1020 167 167 341 283
591 394 137 61 426 141 565 156 25 3 51 7 59 10 7 2 66 7 130 10 64 4 117 8
118 9 5 3 170 -3 258 -10z"/>
<path d="M2310 2863 c-61 -8 -146 -37 -198 -68 -162 -97 -250 -245 -257 -430
-7 -189 72 -347 229 -454 48 -33 164 -80 199 -81 23 0 22 -6 -14 -51 -92 -116
-60 -264 70 -322 73 -32 161 -18 220 36 85 78 216 302 264 452 54 167 57 186
63 355 3 101 0 147 -11 184 -51 169 -170 295 -332 351 -66 23 -170 36 -233 28z
m193 -141 c117 -42 216 -145 251 -262 66 -219 -68 -655 -263 -860 -44 -46 -83
-52 -125 -19 -43 34 -36 78 23 153 66 83 91 126 91 157 0 41 -23 53 -109 54
-322 7 -508 357 -330 621 103 151 292 215 462 156z"/>
<path d="M3450 2854 c-92 -19 -179 -65 -249 -132 -73 -70 -116 -137 -141 -222
-57 -190 -9 -383 129 -521 73 -73 143 -114 238 -139 l63 -16 -40 -53 c-22 -28
-42 -68 -46 -87 -25 -136 78 -252 216 -242 73 5 110 30 183 121 175 220 278
519 272 791 -2 81 -8 115 -28 169 -95 247 -341 383 -597 331z m193 -118 c97
-18 214 -107 265 -204 61 -116 63 -247 7 -482 -35 -149 -194 -431 -266 -474
-48 -29 -92 -17 -117 31 -20 37 -14 58 38 122 27 34 61 81 75 105 22 37 24 47
14 74 -6 18 -16 33 -22 33 -7 1 -46 3 -87 4 -92 4 -172 32 -239 85 -164 130
-201 349 -89 531 52 85 161 160 253 175 22 3 41 7 43 9 4 3 91 -3 125 -9z"/>
</g>
</svg>
